<svg width="1024" height="1024" viewBox="0 0 1024 1024" fill="none" xmlns="http://www.w3.org/2000/svg">
<path d="M351.069 385.739C353.364 385.75 355.658 385.739 357.953 385.727C398.775 385.686 433.151 405.749 463 432C463.733 432.634 464.467 433.268 465.223 433.922C477.831 444.851 490.356 456.04 502 468C500.393 472.024 497.548 474.707 494.512 477.684C493.972 478.221 493.431 478.758 492.875 479.312C491.15 481.025 489.419 482.731 487.688 484.438C486.534 485.581 485.381 486.725 484.229 487.869C482.099 489.983 479.966 492.093 477.831 494.201C475.97 496.041 474.128 497.901 472.308 499.781C469.94 502.058 468.106 503.024 465 504C464.557 503.582 464.114 503.165 463.658 502.734C461.607 500.8 459.553 498.869 457.5 496.938C456.804 496.281 456.108 495.624 455.391 494.947C451.176 490.986 446.895 487.151 442.451 483.448C441.972 482.97 441.493 482.492 441 482C441 481.34 441 480.68 441 480C440.18 479.662 440.18 479.662 439.344 479.316C436.311 477.613 433.99 475.329 431.5 472.938C415.665 458.125 396.867 446.234 376 440C374.989 439.629 373.979 439.257 372.938 438.875C354.907 433.504 335.197 437.183 318.804 445.593C300.236 455.769 288.523 472.3 282.543 492.488C278.083 513.121 280.777 534.95 292 553C302.938 569.532 317.763 580.03 337 585C337.604 585.175 338.208 585.35 338.831 585.531C357.22 589.511 377.58 585.52 394 577C395.013 576.497 396.026 575.995 397.07 575.477C415.785 565.871 431.106 551.777 446.365 537.522C448.055 535.948 449.755 534.385 451.457 532.824C456.497 528.201 461.503 523.571 466.287 518.68C468.01 516.99 469.799 515.428 471.637 513.863C476.316 509.793 480.654 505.421 485 501C489.887 496.03 494.811 491.223 500.098 486.68C503.211 483.931 506.096 480.966 509 478C513.185 473.766 517.397 469.682 521.945 465.836C525.3 462.838 528.416 459.604 531.576 456.404C534.896 453.059 538.318 449.92 541.91 446.867C546.473 442.791 550.711 438.36 555 434C552.008 430.101 548.87 427.054 545.098 423.941C542.448 421.489 540.294 418.788 538 416C555.129 412.537 572.278 409.186 589.447 405.923C592.725 405.299 596.003 404.672 599.28 404.044C602.453 403.436 605.627 402.834 608.801 402.23C609.97 402.006 611.14 401.781 612.345 401.549C613.425 401.345 614.505 401.141 615.618 400.93C617.038 400.66 617.038 400.66 618.485 400.384C621 400 621 400 625 400C624.441 405.809 623.588 411.476 622.375 417.188C620.429 426.612 618.686 436.07 616.96 445.537C614.494 459.067 611.994 472.575 609 486C604.671 482.371 600.533 478.65 596.562 474.625C595.698 473.751 594.833 472.877 593.941 471.977C593.301 471.324 592.66 470.672 592 470C586.918 474.178 582.282 478.648 577.733 483.392C576.525 484.631 575.266 485.82 574 487C573.34 487 571.5 489.5 572.5 487.5C575 486 572.265 487.887 572 488.5C570.667 490.9 568.586 492.427 566.469 494.156C561.532 498.336 557.035 502.892 552.5 507.5C547.471 512.61 542.419 517.574 536.979 522.244C533.319 525.492 529.927 529.011 526.5 532.5C522.461 536.613 518.439 540.681 514.062 544.438C509.291 548.543 504.913 553.016 500.5 557.5C495.455 562.626 490.393 567.63 484.934 572.315C481.587 575.23 478.402 578.316 475.188 581.375C469.003 587.21 462.684 592.738 456 598C454.925 598.878 453.851 599.757 452.777 600.637C430.035 619.129 404.724 631.336 376 637C375.248 637.175 374.496 637.35 373.721 637.531C355.07 640.748 332.774 639.231 315 633C313.862 632.607 313.862 632.607 312.7 632.205C282.774 621.544 256.51 598.694 242.715 569.975C241.793 567.99 240.893 565.997 240 564C239.718 563.387 239.436 562.774 239.145 562.142C237.181 557.833 235.491 553.49 234 549C233.788 548.365 233.577 547.73 233.358 547.075C229.747 535.507 229.609 523.757 229.563 511.75C229.556 510.985 229.55 510.221 229.544 509.433C229.366 475.119 243.808 444.565 267.5 420.062C289.739 397.838 319.834 385.567 351.069 385.739Z" fill="#7E3C7C"/>
<path d="M745.375 410.675C750.141 414.562 754.622 418.683 759 423C760.296 424.276 760.296 424.276 761.617 425.578C774.405 438.884 783.627 456.035 789.312 473.5C789.676 474.602 789.676 474.602 790.048 475.726C793.761 487.787 794.41 500.205 794.375 512.75C794.375 513.449 794.375 514.147 794.374 514.867C794.341 526.019 793.37 536.332 790 547C789.61 548.329 789.221 549.659 788.832 550.988C779.676 581.145 757.737 608.162 730.004 623.234C726.062 625.289 722.055 627.181 718 629C716.898 629.495 715.796 629.99 714.66 630.5C706.284 633.979 697.926 635.615 689 637C687.915 637.173 686.83 637.345 685.712 637.523C679.354 638.34 672.964 638.245 666.562 638.25C665.483 638.251 665.483 638.251 664.383 638.252C653.964 638.236 644.099 637.9 634 635C632.809 634.671 631.618 634.343 630.391 634.004C609.373 627.597 591.223 616.409 574 603C573.136 602.331 572.273 601.662 571.383 600.973C566.19 596.888 561.238 592.591 556.355 588.141C554.323 586.293 552.266 584.483 550.188 582.687C542.379 575.879 534.661 568.879 527.434 561.453C526.024 560.024 524.543 558.667 523.062 557.312C521 555 521 555 521 551C522.469 549.105 522.469 549.105 524.5 547.187C525.235 546.488 525.97 545.788 526.727 545.066C529.401 542.635 532.125 540.269 534.867 537.914C537.339 535.695 539.666 533.363 542 531C545.077 527.904 548.159 524.828 551.375 521.875C551.981 521.316 552.587 520.756 553.211 520.18C555 519 553.211 520.18 556 518C558.071 519.633 561.071 520.633 563.266 522.91C564.074 523.736 564.882 524.561 565.715 525.412C566.551 526.287 567.388 527.161 568.25 528.062C573.433 533.412 578.593 538.662 584.257 543.505C586.552 545.474 588.737 547.552 590.938 549.625C606.398 563.657 623.859 576.721 644 583C644.778 583.257 645.555 583.515 646.357 583.78C653.787 586.063 660.697 586.454 668.438 586.375C669.575 586.387 670.713 586.398 671.885 586.41C682.696 586.373 692.471 584.358 702.062 579.312C702.739 578.961 703.416 578.609 704.114 578.247C723.213 568.091 734.408 552.871 741.156 532.512C746.145 512.856 743.314 491.871 734 474C731.566 470.12 728.886 466.552 726 463C725.407 462.22 724.814 461.44 724.203 460.637C714.368 448.468 698.309 440.587 683 438C664.882 436.715 648.972 437.416 632.652 445.699C630 447 630 447 628 447C630.123 434.114 632.484 421.29 635.125 408.5C635.378 407.267 635.632 406.034 635.893 404.763C637.074 399.107 638.295 393.522 640 388C676.236 379.729 715.968 387.409 745.375 410.675Z" fill="#A74427"/>
<path d="M351.069 385.739C353.364 385.75 355.658 385.739 357.953 385.727C398.775 385.686 433.151 405.749 463 432C463.733 432.634 464.467 433.268 465.223 433.922C477.831 444.851 490.356 456.04 502 468C500.393 472.024 497.548 474.707 494.512 477.684C493.972 478.221 493.431 478.758 492.875 479.312C491.15 481.025 489.419 482.731 487.688 484.438C486.534 485.581 485.381 486.725 484.229 487.869C482.099 489.983 479.966 492.093 477.831 494.201C475.97 496.041 474.128 497.901 472.308 499.781C469.94 502.058 468.106 503.024 465 504C464.557 503.582 464.114 503.165 463.658 502.734C461.607 500.8 459.553 498.869 457.5 496.938C456.804 496.281 456.108 495.624 455.391 494.947C451.176 490.986 446.895 487.151 442.451 483.448C441.972 482.97 441.493 482.492 441 482C439.801 480.876 440 481.68 440 481C440.836 481.345 439.18 480.662 440 481C436.967 479.296 433.99 475.329 431.5 472.938C415.665 458.125 396.867 446.234 376 440C374.989 439.629 373.979 439.257 372.938 438.875C354.907 433.504 335.197 437.183 318.804 445.593C300.236 455.769 288.523 472.3 282.543 492.488C278.083 513.121 280.777 534.95 292 553C304.385 571.72 321.454 581.841 343.253 586.339C346.164 586.92 349.08 587.467 352 588C351.67 588.66 351.34 589.32 351 590C347.986 590.431 345.03 590.745 342 591C340.312 591.187 338.625 591.374 336.937 591.562C332.6 591.997 328.357 592.081 324 592C324 591.34 324 590.68 324 590C323.218 590.209 322.435 590.418 321.629 590.633C316.735 591.128 312.671 590.072 307.937 588.875C307.003 588.644 306.069 588.413 305.106 588.176C297.804 586.318 290.886 584.087 284 581C282.988 580.549 281.976 580.098 280.934 579.633C261.527 570.462 246.544 555.53 236 537C235.34 536.01 234.68 535.02 234 534C233.01 534.33 232.02 534.66 231 535C229.963 530.72 229.823 526.544 229.797 522.164C229.791 521.408 229.785 520.651 229.78 519.872C229.77 518.27 229.764 516.668 229.76 515.066C229.75 512.667 229.719 510.27 229.687 507.871C229.455 474.219 244.341 444.015 267.5 420.062C289.739 397.838 319.834 385.567 351.069 385.739Z" fill="#217497"/>
<path d="M556 518C559.35 519.452 561.505 521.282 564.047 523.887C564.81 524.661 565.573 525.435 566.359 526.232C567.148 527.043 567.937 527.853 568.75 528.688C573.764 533.815 578.794 538.812 584.24 543.483C586.537 545.463 588.73 547.546 590.938 549.625C606.398 563.657 623.859 576.721 644 583C644.746 583.26 645.492 583.519 646.26 583.787C654.562 586.427 662.591 586.345 671.188 586.188C672.631 586.172 674.074 586.159 675.518 586.146C679.012 586.114 682.506 586.062 686 586C686 586.66 686 587.32 686 588C709.513 588.88 735.896 582.121 755 568C756.54 567.017 758.081 566.038 759.625 565.062C763.97 562.171 767.437 558.784 771 555C771.788 554.23 772.575 553.461 773.387 552.668C780.469 545.437 786.427 538.001 789.184 528.145C790 526 791 524.5 794 522.5C794.354 530.255 792.536 538.432 790.375 545.875C789.968 547.313 789.968 547.313 789.552 548.781C787.367 556.255 784.72 563.138 781 570C780.182 571.516 780.182 571.516 779.348 573.062C763.804 600.696 740.119 621.674 710 632C709.219 632.339 708.438 632.678 707.633 633.027C704.202 634.295 700.714 634.929 697.125 635.562C696.102 635.751 696.102 635.751 695.059 635.943C685.518 637.679 676.242 638.242 666.562 638.25C665.483 638.251 665.483 638.251 664.383 638.252C653.964 638.236 644.099 637.9 634 635C632.809 634.671 631.618 634.343 630.391 634.004C609.373 627.597 591.223 616.409 574 603C572.704 601.996 572.704 601.996 571.383 600.973C566.19 596.888 561.238 592.591 556.355 588.141C554.323 586.293 552.266 584.483 550.188 582.688C542.379 575.879 534.661 568.879 527.434 561.453C526.024 560.024 524.543 558.667 523.062 557.312C521 555 521 555 521 551C522.469 549.105 522.469 549.105 524.5 547.188C525.235 546.488 525.97 545.788 526.727 545.066C529.401 542.635 532.125 540.269 534.867 537.914C538.228 534.898 541.355 531.653 544.527 528.441C547.882 525.129 551.416 522.06 555 519C555.33 518.67 555.66 518.34 556 518Z" fill="#BF375F"/>
<path d="M350.5 436.5C347.459 438.114 343.149 437.477 339.773 438.19C320.425 442.353 304.385 452.67 292.934 468.891C282.141 486.246 277.63 507.693 281.906 527.883C287.282 549.593 298.827 565.925 317.812 577.75C328.436 583.712 340.148 584.836 352 587C351.67 587.66 351.5 588.5 350.5 589.5C348 591 345.03 590.745 342 591C340.312 591.187 338.625 591.374 336.937 591.562C332.6 591.997 328.357 592.081 324 592C324 592.68 324 591.34 324 592C324.806 591.785 323.218 592.209 324 592C319.106 592.495 312.671 590.072 307.937 588.875C307.003 588.644 306.069 588.413 305.106 588.176C297.804 586.318 290.886 584.087 284 581C282.988 580.549 281.976 580.098 280.934 579.633C261.527 570.462 241.544 553.53 231 535C231.68 536.02 230.34 534.01 231 535C232.515 534.495 229.515 535.495 231 535C227.149 517.571 229.839 501.551 238.75 486.313C242.73 480.159 247.155 474.493 252 469C252.808 468.066 252.808 468.066 253.633 467.113C267.984 451.644 287.945 442.987 308 438C308.714 437.821 309.428 437.641 310.163 437.457C322.993 434.376 337.379 436.177 350.5 436.5Z" fill="#163D5E"/>
<path d="M745.375 410.898C750.141 414.785 754.622 418.906 759 423.223C760.296 424.499 760.296 424.499 761.617 425.801C774.405 439.107 783.627 456.258 789.312 473.723C789.555 474.458 789.798 475.192 790.048 475.949C793.906 488.484 794.281 501.116 794.125 514.098C794.115 515.576 794.106 517.054 794.098 518.532C794.076 522.096 794.139 523.659 794.098 527.223C793.768 527.223 793.524 531.223 793 529.223C791.556 523.714 791.978 518.166 792.127 512.524C792.247 503.665 790.489 496.275 786.438 488.411C785.912 487.381 785.912 487.381 785.377 486.33C772.791 462.381 751.771 447.658 726.684 439.028C715.902 435.795 705.298 434.031 694.062 434.098C693.276 434.1 692.49 434.102 691.68 434.104C686.389 434.143 668.24 436.682 663 437.459C663.99 438.119 669.98 436.634 671 437.314C670.337 437.313 671.183 437.301 670.5 437.3C654.431 437.364 647.128 438.614 632.637 445.918C630 447.223 630 447.223 628 447.223C630.123 434.337 632.484 421.514 635.125 408.723C635.378 407.49 635.632 406.257 635.893 404.986C637.074 399.33 638.295 393.745 640 388.223C676.236 379.952 715.968 387.632 745.375 410.898Z" fill="#F18D31"/>
</svg>
